<svg xmlns="http://www.w3.org/2000/svg" viewBox="0 0 960 220" width="960" height="220" role="img" aria-label="TES4 Skyrim">
  <defs>
    <linearGradient id="stone" x1="0" y1="0" x2="0" y2="1">
      <stop offset="0" stop-color="#e9e2cf"/>
      <stop offset="0.5" stop-color="#c8b98f"/>
      <stop offset="1" stop-color="#8a7a52"/>
    </linearGradient>
    <linearGradient id="sky" x1="0" y1="0" x2="1" y2="0">
      <stop offset="0" stop-color="#6c8bb0"/>
      <stop offset="0.5" stop-color="#a9c2dc"/>
      <stop offset="1" stop-color="#6c8bb0"/>
    </linearGradient>
    <filter id="engrave" x="-5%" y="-20%" width="110%" height="140%">
      <feDropShadow dx="0" dy="2" stdDeviation="1.2" flood-color="#000000" flood-opacity="0.55"/>
    </filter>
  </defs>

  <rect width="960" height="220" fill="#12161c"/>
  <rect width="960" height="220" fill="url(#sky)" opacity="0.06"/>

  <!-- Title rendered from the Oblivion font as vector outlines -->
  <g filter="url(#engrave)">
<g fill="url(#stone)"><path transform="translate(360.17 92) scale(0.04297 -0.04297)" d="M194 1333 336 1320 414 1333 544 1320H608L738 1333L828 1320L906 1333L1009 1320L1139 1333Q1320 1333 1320 1229L1333 1074Q1269 1074 1178 1152L1048 1178H971Q764 1178 764 906L815 595L802 142V26L777 0Q608 123 453 168L440 181V194Q569 430 569 544L556 556V569L569 582L556 802V1035Q489 1178 285 1178Q178 1178 65 1087L0 1074Q0 1320 91 1320Z"/><path transform="translate(432.18 92) scale(0.04297 -0.04297)" d="M33 1436H47L129 1422H461L599 1436L709 1422L889 1436Q1110 1436 1110 1339L1137 1146Q1059 1146 944 1229L737 1270Q501 1270 461 1091L447 787Q766 787 875 870L889 856L861 704L889 566L875 552H847Q760 617 627 635Q419 613 419 511L433 497H419L433 483V249Q466 180 502 180L778 166Q887 166 1055 276L1137 290Q1119 14 1027 14L889 0L696 14L585 0L516 14L129 0H47L19 28V41L143 180L185 290V511L171 566L185 621V732L171 856L185 870V884L171 1105V1187Q171 1267 47 1367Z"/><path transform="translate(495.64 92) scale(0.04297 -0.04297)" d="M533 1332Q778 1332 895 1254L959 1151V1086Q922 1022 882 1022Q816 1022 688 1125Q600 1177 507 1177Q287 1105 287 970Q331 802 429 802H533Q674 802 856 711Q998 576 1024 440V388Q943 91 804 91Q761 51 507 0Q119 35 119 285L93 323V414L145 453Q264 391 339 246L507 142Q791 194 791 375V414Q791 595 520 660L442 647Q158 691 158 802Q130 802 80 957Q106 1164 209 1229Q410 1332 533 1332Z"/><path transform="translate(556.26 92) scale(0.04297 -0.04297)" d="M600 438V1124L176 438ZM737 338V167Q737 50 809 50H885V0H443V50H519Q600 50 600 170V338H43V373L703 1434H737V438H756Q889 438 949 570H998L895 338Z"/></g>
<g fill="url(#sky)"><path transform="translate(320.57 156) scale(0.02539 -0.02539)" d="M533 1332Q778 1332 895 1254L959 1151V1086Q922 1022 882 1022Q816 1022 688 1125Q600 1177 507 1177Q287 1105 287 970Q331 802 429 802H533Q674 802 856 711Q998 576 1024 440V388Q943 91 804 91Q761 51 507 0Q119 35 119 285L93 323V414L145 453Q264 391 339 246L507 142Q791 194 791 375V414Q791 595 520 660L442 647Q158 691 158 802Q130 802 80 957Q106 1164 209 1229Q410 1332 533 1332Z"/><path transform="translate(374.12 156) scale(0.02539 -0.02539)" d="M121 1332 239 1319 343 1332V1319L356 1332H513L630 1306Q461 1088 461 1045H448Q491 849 526 849H552Q809 1094 852 1306L1009 1319L1101 1306L1140 1319V1306L1153 1319H1205V1306L1192 1293V1280L1205 1241Q1076 1214 970 1110Q825 870 643 731V718Q714 608 957 392Q1137 144 1283 144V91L1257 65H1061Q996 62 996 39Q826 78 826 104L852 222Q830 316 552 548H500L513 509L474 326L513 13L500 0H487Q352 0 265 131H252L239 118H226L199 144V131L186 144L121 131L95 157Q252 322 252 548L239 692L252 849L239 979L252 1045L239 1058V1071L252 1084V1097Q252 1132 121 1306Z"/><path transform="translate(435.21 156) scale(0.02539 -0.02539)" d="M0 1333H349Q487 1104 549 950Q549 876 637 805L849 1214V1227L824 1320L836 1333H1211L1236 1307Q1075 1307 936 1003Q711 666 711 634Q711 575 524 172L474 0H462Q405 0 312 238Q225 251 225 277Q469 481 512 673Q159 1280 62 1280Q0 1297 0 1320Z"/><path transform="translate(492.52 156) scale(0.02539 -0.02539)" d="M632 1336Q966 1255 966 1130L1004 989Q927 694 747 694L619 668V655Q988 244 1017 244Q1017 159 1222 103V64L1197 39H1133L888 26L799 64L811 154Q811 284 490 514L452 437V321L426 295Q426 236 542 51V26L259 0Q92 22 92 51Q220 238 220 360V578L233 591L220 604V719L208 796L220 809V822L208 835L220 1002Q220 1207 92 1297V1323L105 1336ZM413 1041 426 1002 413 963Q413 809 465 809Q773 809 773 912L811 989Q811 1153 542 1182Q448 1182 413 1041Z"/><path transform="translate(551.09 156) scale(0.02539 -0.02539)" d="M102 1332H115L220 1319L324 1332V1319L337 1332H455Q598 1332 598 1293Q564 1211 468 1123Q455 1045 429 1045L442 1032V888L455 770L442 718Q476 653 494 496L468 366L494 13L481 0L389 13H363V39Q233 90 233 144L220 131H207L194 144L180 131H167L154 144L141 131H102L76 157Q233 322 233 548L220 692L233 836L220 1006L233 1019V1032L220 1045V1058L233 1097Q233 1144 102 1293Z"/><path transform="translate(593.78 156) scale(0.02539 -0.02539)" d="M438 1332Q490 1272 529 1267Q529 1236 568 1203Q843 674 917 608L1240 1164Q1545 1311 1551 1332L1576 1306L1589 414V336L1667 103Q1667 83 1576 39L1486 52L1473 39H1460L1447 52L1382 39H1253V52Q1253 113 1344 220V246Q1344 617 1382 866L1370 879H1357Q1333 875 1072 375L969 246H956Q857 246 658 556Q568 556 516 776H477V724L464 285L477 13L464 0Q369 0 296 116Q141 142 141 233V246Q244 345 244 375L257 608L244 647L257 660L244 815V1035L257 1086L244 1138Q244 1254 361 1254Z"/></g>
  </g>

  <!-- Divider rule -->
  <rect x="230" y="108" width="500" height="2" fill="#c8b98f" opacity="0.6"/>
  <rect x="230" y="108" width="500" height="1" fill="#000" opacity="0.4"/>

  <text x="480" y="188" text-anchor="middle" font-family="Georgia, serif"
        font-size="15" letter-spacing="6" fill="#8f9aa6">OBLIVION &#8594; SKYRIM CONVERSION</text>
</svg>
